<svg version="1.0" xmlns="http://www.w3.org/2000/svg"
 width="32" height="32" viewBox="0 0 1623 1030">

<g transform="translate(0.000000,914.000000) scale(0.100000,-0.100000)"
fill="#10B981" stroke="none">
<path d="M6414 8330 c-3 -3 -184 -5 -402 -6 -812 -3 -1868 -14 -1908 -19 -22
-3 -92 -1 -155 6 -149 15 -2078 14 -2128 -1 -25 -7 -37 -7 -42 1 -3 6 -9 7
-12 2 -3 -5 -6 -454 -7 -998 0 -545 -2 -1061 -3 -1147 -1 -87 2 -159 6 -161 4
-1 589 -1 1300 1 711 1 1481 2 1712 1 231 0 636 -2 900 -3 l480 -1 312 -310
c171 -170 319 -317 328 -325 27 -24 1542 -1551 1635 -1647 47 -48 154 -155
238 -238 84 -82 155 -158 158 -167 3 -10 10 -18 15 -18 18 0 516 -486 525
-512 11 -36 47 -20 99 44 28 34 73 82 100 107 28 25 285 279 571 565 287 287
596 594 688 684 91 89 166 164 166 166 0 3 169 174 374 381 305 306 379 376
398 373 l23 -3 1 -2205 c1 -1213 2 -2226 3 -2252 l1 -47 1145 -1 1145 0 1 27
c1 33 9 1550 9 1638 -4 491 -10 3015 -10 4480 0 627 -1 1235 -3 1350 l-2 210
-220 6 c-121 4 -569 4 -995 2 -426 -3 -838 -3 -915 -1 -77 1 -174 2 -215 1
-70 -1 -76 -3 -95 -29 -23 -32 -14 -23 -236 -240 -90 -88 -263 -263 -384 -389
-121 -125 -271 -278 -334 -339 -218 -213 -307 -303 -436 -440 -136 -145 -730
-737 -802 -801 -33 -28 -47 -35 -65 -30 -13 4 -106 92 -208 196 -277 283
-1062 1069 -1069 1070 -3 0 -31 30 -61 66 -30 35 -98 103 -150 149 -52 47
-180 173 -285 281 -104 108 -256 261 -337 341 -83 80 -148 153 -148 163 0 13
-11 19 -42 24 -49 7 -657 3 -664 -5z"/>
<path d="M642 5248 c-24 -24 -11 -49 64 -121 212 -201 639 -632 763 -772 30
-33 100 -107 156 -165 56 -58 109 -117 119 -132 15 -24 17 -67 20 -440 2 -227
-2 -669 -7 -983 -5 -313 -9 -588 -9 -610 9 -1171 11 -1437 14 -1439 2 -1 53 1
113 6 61 4 570 9 1133 9 626 2 1025 6 1029 12 3 5 4 57 2 116 -1 58 -4 133 -5
166 -1 33 3 209 8 390 5 182 9 591 10 910 1 319 4 612 7 650 l6 70 330 1 c182
1 366 -1 410 -4 l80 -5 354 -351 c194 -193 390 -389 435 -436 44 -46 263 -267
486 -490 223 -223 431 -433 463 -467 32 -35 60 -63 62 -63 1 0 74 -71 162
-157 87 -87 200 -198 251 -248 l92 -90 142 -2 c79 -1 213 -5 298 -8 85 -3 189
-7 230 -9 41 -1 149 1 240 6 91 4 462 7 825 6 731 -2 706 -2 1173 0 284 1 332
4 332 16 0 8 -4 18 -10 21 -5 3 -10 12 -10 19 0 21 -793 816 -814 816 -11 0
-142 127 -329 318 -171 174 -383 387 -471 472 -88 85 -185 182 -215 215 -31
33 -208 211 -395 395 -283 280 -530 527 -1223 1223 -303 303 -469 467 -475
467 -3 0 -123 118 -265 262 -142 145 -289 295 -328 333 l-70 70 -960 1 c-528
0 -1120 6 -1315 12 -614 21 -918 26 -932 16 -16 -11 -1926 -12 -1948 -1 -9 4
-21 2 -28 -5z"/>
</g>
</svg>
