<svg width="32" height="32" viewBox="0 0 1623 1030" xmlns="http://www.w3.org/2000/svg">
  <g transform="translate(0.000000,1030.000000) scale(0.100000,-0.100000)" fill="#10B981" stroke="none">
    <path d="M14570 9434 c-79 -9 -169 -11 -245 -7 -66 3 -345 6 -620 6 -585 -1
    -556 3 -620 -95 -22 -34 -44 -76 -50 -93 -12 -37 -63 -142 -85 -175 -9 -14
    -32 -61 -50 -105 -18 -44 -40 -91 -50 -105 -9 -14 -59 -106 -110 -205 -217
    -423 -260 -504 -304 -580 -26 -44 -60 -109 -77 -145 -56 -120 -144 -295 -167
    -333 -13 -21 -64 -116 -114 -210 -50 -95 -103 -190 -118 -212 -15 -22 -51 -89
    -80 -150 -153 -320 -193 -401 -205 -415 -7 -8 -30 -49 -51 -90 -20 -41 -49
    -91 -64 -110 -15 -19 -31 -46 -35 -60 -4 -14 -30 -68 -58 -120 -76 -144 -130
    -251 -201 -402 -66 -141 -155 -300 -211 -378 -18 -25 -83 -146 -144 -270 -132
    -267 -237 -469 -256 -490 -7 -8 -56 -98 -108 -200 -52 -102 -116 -228 -143
    -280 -27 -52 -64 -126 -81 -165 -18 -38 -50 -101 -72 -140 -31 -53 -41 -81
    -41 -116 0 -52 33 -142 83 -226 46 -78 123 -216 187 -338 29 -55 75 -138 102
    -185 27 -47 52 -90 56 -97 4 -6 24 -38 45 -70 21 -32 53 -83 71 -113 18 -30
    52 -86 76 -125 24 -38 81 -141 127 -228 99 -190 167 -297 188 -297 8 0 29 26
    45 58 17 31 58 104 91 162 32 58 77 140 99 184 22 43 44 84 50 90 12 16 54 96
    217 421 75 149 146 286 159 306 12 19 46 80 74 135 29 54 67 126 85 159 17 33
    66 121 107 196 42 74 83 155 91 180 8 24 34 75 56 114 23 38 41 73 41 76 0 9
    120 217 147 254 12 17 32 55 46 86 13 30 49 96 80 148 32 52 57 98 57 104 0 5
    35 75 78 156 43 80 85 162 92 181 8 19 30 62 48 95 19 33 41 78 48 99 15 41
    117 231 192 356 25 41 69 118 98 172 28 53 78 136 110 184 67 104 65 106 88
    -69 14 -108 14 -131 -1 -245 -13 -109 -14 -178 -5 -487 5 -198 8 -412 7 -475
    -10 -434 -21 -1657 -19 -2140 1 -179 1 -388 1 -465 -1 -77 0 -392 2 -700 4
    -523 5 -562 22 -586 12 -17 32 -29 56 -34 54 -10 627 -7 753 5 58 5 177 9 265
    9 88 1 261 6 384 13 220 12 224 13 240 37 13 20 16 60 18 220 1 108 6 207 10
    221 11 40 24 929 20 1525 0 160 -1 371 0 470 0 99 1 367 2 595 1 228 -1 557
    -5 730 -5 210 -4 322 3 335 7 14 7 66 1 165 -6 80 -9 300 -7 490 2 190 4 476
    3 635 -1 365 -3 999 -3 1045 0 19 -1 159 -1 310 -1 151 1 397 5 546 4 173 2
    324 -5 420 -14 180 -18 644 -7 734 l9 65 -39 18 c-28 13 -72 19 -173 22 -74 3
    -146 7 -160 9 -14 2 -81 -3 -150 -10z"/>
    <path d="M5448 9433 l-107 -4 -39 -77 c-22 -42 -55 -104 -74 -137 -19 -33 -63
    -109 -97 -170 -33 -60 -70 -126 -81 -145 -12 -19 -32 -59 -46 -89 -36 -77
    -110 -226 -148 -296 -18 -33 -50 -94 -72 -135 -22 -41 -45 -84 -51 -95 -7 -11
    -27 -51 -46 -90 -19 -38 -63 -124 -97 -190 -34 -66 -76 -147 -92 -180 -17 -33
    -36 -67 -43 -75 -7 -8 -36 -60 -65 -115 -29 -55 -74 -138 -100 -185 -64 -114
    -179 -336 -258 -495 -35 -71 -69 -137 -76 -145 -7 -8 -25 -44 -40 -80 -15 -36
    -38 -78 -50 -95 -13 -16 -28 -46 -35 -65 -12 -38 -28 -67 -144 -266 -42 -73
    -89 -158 -105 -190 -15 -33 -47 -91 -69 -130 -23 -38 -49 -90 -59 -115 -10
    -24 -26 -56 -36 -71 -22 -32 -118 -235 -118 -252 -1 -6 -27 -58 -60 -116 -33
    -58 -79 -143 -103 -190 -24 -47 -62 -116 -83 -155 -22 -38 -50 -96 -63 -127
    -13 -32 -36 -78 -52 -104 -17 -25 -42 -71 -58 -102 -15 -32 -47 -91 -71 -132
    -24 -41 -53 -100 -65 -130 -12 -30 -33 -73 -47 -95 -26 -41 -78 -150 -78 -163
    0 -4 -16 -32 -36 -62 -20 -30 -48 -80 -61 -110 -75 -169 -145 -310 -206 -415
    -23 -38 -56 -101 -75 -140 -19 -38 -53 -101 -76 -140 -24 -38 -48 -85 -54
    -104 -7 -19 -24 -50 -39 -70 -25 -33 -127 -224 -226 -426 -24 -49 -60 -116
    -79 -147 -20 -32 -46 -86 -59 -120 -13 -34 -38 -85 -57 -113 -18 -27 -52 -88
    -74 -135 -23 -47 -56 -107 -73 -135 -17 -27 -39 -69 -48 -92 -9 -23 -32 -67
    -52 -98 -20 -31 -59 -102 -86 -158 -27 -56 -72 -145 -100 -197 -27 -52 -82
    -158 -121 -235 -39 -77 -84 -159 -100 -182 -16 -24 -41 -74 -57 -112 -16 -38
    -43 -88 -60 -110 -26 -33 -30 -44 -22 -60 6 -11 19 -22 28 -25 10 -3 412 -6
    893 -7 928 -1 924 -1 995 45 13 8 51 68 86 133 34 65 91 172 125 238 35 66 64
    125 64 131 0 6 22 51 48 100 27 49 81 159 122 244 40 85 81 166 90 180 22 32
    86 150 170 315 184 358 216 421 280 559 38 81 80 162 93 180 13 17 67 121 121
    231 53 110 104 214 113 230 9 17 59 113 111 215 52 102 100 192 107 200 6 8
    65 123 130 255 65 132 144 286 176 342 33 56 59 105 59 108 0 4 31 68 69 143
    37 76 87 181 111 235 23 53 50 107 60 120 9 12 28 47 41 77 13 30 41 84 62
    119 21 35 86 156 144 270 58 113 118 229 134 257 16 28 29 60 29 70 0 11 21
    55 46 99 25 44 64 116 86 160 86 173 175 340 270 505 27 47 69 126 93 175 24
    50 62 122 84 160 23 38 48 92 58 120 9 27 37 86 64 130 26 44 68 129 93 189
    26 60 55 121 65 135 10 14 38 64 61 111 66 133 99 178 140 189 19 5 168 11
    330 13 289 3 413 3 1090 0 184 -1 551 -1 815 -1 877 2 1014 -1 1062 -21 49
    -21 58 -43 51 -124 -3 -40 -21 -86 -76 -195 -67 -131 -192 -321 -212 -321 -5
    0 -22 -12 -39 -26 -44 -37 -187 -75 -286 -77 -44 -1 -264 2 -490 7 -225 5
    -464 9 -530 11 -365 7 -1066 5 -1082 -3 -10 -5 -56 -15 -103 -23 l-85 -13 -80
    -78 c-64 -61 -91 -96 -130 -170 -26 -51 -58 -109 -70 -128 -12 -19 -27 -51
    -35 -70 -8 -19 -30 -62 -50 -95 -45 -74 -57 -111 -64 -199 -6 -66 -4 -72 33
    -145 22 -42 74 -146 117 -231 42 -85 84 -166 94 -180 10 -14 36 -65 58 -113
    23 -48 50 -100 61 -115 21 -30 100 -181 318 -612 74 -146 138 -269 142 -275 5
    -5 24 -39 43 -75 154 -288 217 -409 223 -430 11 -37 119 -249 149 -293 15 -21
    37 -64 50 -96 13 -31 42 -88 65 -127 23 -38 58 -103 78 -144 114 -240 162
    -333 205 -401 26 -42 48 -82 48 -90 0 -8 9 -27 20 -44 11 -16 41 -70 66 -120
    26 -49 52 -97 60 -105 7 -9 34 -58 59 -110 25 -52 64 -129 86 -170 23 -41 81
    -154 131 -250 49 -96 95 -182 102 -190 7 -8 31 -58 54 -110 23 -53 64 -137 92
    -188 27 -51 50 -97 50 -102 0 -5 8 -15 18 -22 10 -7 42 -58 72 -113 68 -128
    110 -207 143 -270 15 -27 37 -78 51 -113 34 -89 63 -127 121 -159 49 -27 54
    -28 255 -33 113 -3 340 -3 505 0 l300 6 90 30 c215 73 291 138 360 309 28 68
    38 105 38 150 1 57 -4 70 -108 269 -59 116 -121 230 -136 255 -16 25 -29 49
    -29 54 0 5 -16 31 -35 57 -20 27 -52 84 -71 127 -20 43 -42 85 -49 93 -7 8
    -34 56 -60 105 -26 50 -66 122 -88 160 -22 39 -62 113 -90 165 -27 52 -58 106
    -67 120 -10 14 -34 60 -55 103 -20 43 -44 86 -53 96 -10 9 -28 41 -42 71 -13
    30 -36 73 -51 95 -15 22 -33 56 -41 75 -8 19 -31 60 -50 90 -19 30 -45 81 -57
    112 -13 32 -29 62 -36 68 -8 6 -28 46 -46 88 -17 42 -44 95 -59 118 -16 22
    -41 67 -57 100 -17 32 -54 100 -83 149 -30 50 -68 118 -86 153 -18 34 -42 75
    -52 90 -10 15 -51 90 -91 167 -40 77 -78 147 -86 155 -7 8 -27 44 -45 80 -17
    36 -40 81 -50 100 -10 19 -40 76 -66 125 -25 50 -50 92 -54 95 -4 3 -29 46
    -55 95 -26 50 -51 95 -56 101 -5 5 -33 59 -64 120 -82 163 -77 203 32 225 73
    15 544 17 763 4 200 -12 882 -15 917 -4 54 17 131 112 186 229 129 273 210
    432 342 670 51 91 170 322 350 675 61 121 123 238 138 260 14 22 33 58 40 80
    8 23 29 64 46 91 17 28 37 68 45 90 7 21 34 77 60 123 25 46 46 86 46 89 0 3
    17 28 38 56 22 28 47 75 57 105 9 29 33 81 52 115 19 33 57 104 83 156 26 52
    64 124 84 158 20 35 36 69 36 76 0 18 161 334 213 417 26 42 47 81 47 89 0 13
    68 143 150 285 62 109 94 185 82 197 -11 11 -1164 17 -4522 22 -1301 2 -2376
    6 -2390 8 -14 2 -73 3 -132 1z"/>
    <path d="M5959 5558 c-23 -35 -50 -86 -59 -114 -10 -29 -55 -117 -99 -197 -45
    -79 -81 -148 -81 -153 0 -12 -42 -98 -57 -115 -13 -15 -70 -124 -155 -294 -22
    -44 -50 -93 -62 -110 -13 -16 -38 -59 -56 -95 -18 -36 -40 -76 -49 -90 -10
    -14 -26 -47 -36 -75 -26 -73 -112 -240 -159 -312 -23 -33 -53 -81 -68 -105
    -15 -23 -32 -50 -37 -58 -5 -8 -35 -69 -66 -135 -31 -66 -87 -172 -124 -235
    -63 -108 -82 -145 -160 -310 -62 -131 -192 -365 -255 -460 -20 -30 -36 -58
    -36 -63 0 -26 -302 -601 -361 -687 -21 -30 -84 -145 -139 -255 -155 -304 -228
    -445 -259 -500 -121 -218 -162 -301 -153 -315 5 -8 25 -18 44 -22 19 -4 239
    -9 489 -12 250 -2 531 -9 624 -15 94 -5 280 -13 415 -17 240 -7 246 -6 297 16
    48 20 56 29 94 99 48 86 214 409 362 701 54 107 118 231 143 275 25 44 64 120
    86 170 21 49 65 134 97 190 32 55 72 137 91 183 18 46 42 98 54 115 12 18 30
    51 40 74 25 57 188 381 390 773 92 179 174 352 182 384 22 82 12 144 -36 228
    -21 37 -41 77 -45 90 -4 13 -17 39 -29 58 -25 41 -182 346 -227 440 -86 180
    -114 238 -187 385 -120 240 -165 326 -195 372 -15 24 -35 62 -44 85 -9 24 -32
    71 -51 106 -27 49 -39 62 -58 62 -18 0 -33 -15 -65 -62z"/>
  </g>
</svg>